<?xml version="1.0" standalone="no"?>
<!DOCTYPE svg PUBLIC "-//W3C//DTD SVG 20010904//EN"
 "http://www.w3.org/TR/2001/REC-SVG-20010904/DTD/svg10.dtd">
<svg version="1.0" xmlns="http://www.w3.org/2000/svg"
 width="460.000000pt" height="460.000000pt" viewBox="0 0 460.000000 460.000000"
 preserveAspectRatio="xMidYMid meet">
<metadata>
Created by potrace 1.14, written by Peter Selinger 2001-2017
</metadata>
<g transform="translate(0.000000,460.000000) scale(0.100000,-0.100000)"
fill="#000000" stroke="none">
<path d="M0 4279 l0 -320 23 7 c12 4 25 11 28 16 13 20 85 20 153 -1 57 -18
77 -19 133 -11 82 11 158 -2 193 -33 14 -13 39 -36 55 -51 17 -15 47 -39 68
-52 21 -14 42 -36 47 -49 5 -14 31 -57 57 -97 26 -40 48 -77 48 -83 1 -22 18
-78 31 -103 9 -18 10 -28 3 -33 -21 -12 13 -77 53 -106 27 -18 35 -29 26 -34
-9 -6 -5 -11 13 -17 15 -6 33 -28 48 -59 20 -44 21 -54 11 -91 -10 -39 -13
-42 -45 -42 -18 0 -46 5 -62 11 -15 7 -38 11 -51 10 -12 0 -25 6 -28 14 -4 8
-18 15 -33 15 -15 0 -31 3 -35 8 -4 4 -40 8 -79 9 -40 1 -106 4 -147 6 -49 2
-82 -1 -95 -9 -11 -7 -39 -16 -63 -20 -23 -4 -45 -11 -48 -15 -3 -5 -14 -9
-25 -9 -11 0 -22 -7 -25 -15 -4 -8 -11 -15 -16 -15 -6 0 -20 -10 -32 -23 -22
-24 -33 -27 -53 -14 -9 6 -13 2 -13 -12 0 -19 5 -20 62 -17 l62 4 -52 -25
c-36 -17 -52 -30 -52 -44 0 -10 5 -19 10 -19 14 0 13 -26 -2 -50 -10 -15 -7
-35 19 -109 17 -50 29 -91 27 -91 -2 0 -15 24 -28 53 -62 137 -68 156 -65 206
3 29 0 52 -6 52 -21 3 -46 -3 -70 -15 -24 -13 -25 -14 -5 -19 22 -6 28 -37 8
-37 -7 0 3 -8 22 -18 22 -10 35 -25 36 -37 2 -35 16 -68 23 -56 4 6 17 -12 30
-44 25 -60 23 -85 -4 -38 -15 26 -15 26 -9 3 12 -48 53 -135 54 -114 0 11 -6
26 -13 33 -10 10 -9 11 5 6 10 -4 27 -22 38 -40 16 -26 32 -36 73 -47 73 -18
336 -15 457 6 177 31 224 57 255 145 19 56 19 77 -1 31 -26 -61 -71 -97 -153
-124 -122 -40 -187 -49 -346 -50 -219 -1 -247 12 -290 127 -19 50 -14 78 6 33
7 -14 18 -26 26 -26 17 0 16 5 -3 35 -25 39 -11 59 36 52 51 -7 77 17 35 33
l-27 10 27 26 c15 14 39 27 54 30 25 5 26 4 26 -39 0 -25 3 -48 6 -51 3 -4 33
-9 66 -12 53 -6 63 -4 82 15 11 11 21 30 21 41 0 11 7 20 15 20 8 0 19 -9 25
-20 6 -11 8 -20 4 -20 -4 0 10 -11 31 -25 33 -23 40 -24 66 -13 22 10 27 17
22 33 -12 38 -38 66 -85 90 -57 30 -76 33 -30 5 56 -34 35 -39 -41 -10 -61 24
-83 27 -142 24 -38 -3 -78 -7 -87 -10 -14 -4 -18 1 -18 20 0 32 -31 35 -60 6
-23 -23 -105 -29 -98 -7 8 23 83 50 163 58 44 5 105 13 135 20 96 20 200 36
194 30 -3 -3 47 -11 113 -17 111 -10 114 -11 45 -13 -48 -1 -71 -5 -67 -11 4
-6 16 -8 27 -5 26 9 55 -18 64 -59 3 -17 9 -35 13 -41 3 -5 6 -14 6 -20 0 -5
18 -10 40 -10 54 0 65 -9 65 -55 0 -59 20 -60 22 -1 1 28 2 64 3 80 1 21 -2
28 -12 24 -7 -3 -13 -2 -13 1 0 11 38 44 44 38 3 -3 6 -42 6 -87 0 -44 4 -85
10 -91 12 -12 15 -109 6 -174 -4 -27 -3 -40 3 -31 11 17 18 6 30 -51 6 -24 13
-52 16 -60 9 -22 -31 -57 -56 -51 -10 3 -19 9 -19 14 0 5 -4 9 -10 9 -5 0 -10
-9 -10 -20 0 -11 -6 -23 -14 -26 -9 -4 -13 -17 -12 -39 2 -19 0 -32 -4 -30 -5
3 -11 -3 -15 -12 -3 -10 -1 -19 5 -21 7 -3 6 -10 -5 -22 -9 -10 -17 -32 -17
-49 -1 -17 -5 -31 -10 -31 -4 0 -8 -7 -8 -15 0 -8 -8 -15 -17 -16 -16 0 -16
-1 1 -8 19 -7 19 -8 1 -15 -16 -6 -17 -9 -5 -16 11 -7 9 -9 -8 -7 -15 1 -22 8
-22 22 0 19 -2 18 -20 -5 -36 -45 -39 -91 -5 -56 19 18 35 21 35 5 0 -5 -5 -7
-11 -3 -7 4 -9 -1 -7 -12 2 -11 -7 -28 -22 -41 -20 -19 -22 -23 -7 -23 9 0 17
-5 17 -10 0 -6 -10 -8 -24 -4 -13 3 -27 1 -30 -4 -3 -6 -15 -8 -26 -5 -24 6
-40 -25 -19 -38 24 -15 35 -9 14 7 -19 15 -18 16 15 11 21 -2 44 1 57 10 19
13 23 12 32 -6 15 -28 14 -34 -8 -28 -36 9 -72 -33 -38 -46 8 -4 7 -6 -3 -6
-10 -1 -15 -12 -16 -32 -1 -17 -7 -35 -13 -39 -10 -5 -9 -9 3 -13 8 -3 17 -1
20 6 3 9 7 8 14 -2 11 -16 5 -80 -9 -95 -5 -6 -9 -20 -9 -33 0 -17 -6 -23 -23
-23 -17 0 -26 -9 -36 -35 -7 -19 -17 -35 -22 -35 -12 0 -12 17 1 25 19 12 10
33 -21 46 -27 11 -29 14 -15 24 17 13 12 25 -11 25 -7 0 -13 -9 -13 -21 0 -33
-18 -59 -36 -52 -13 5 -15 2 -9 -17 7 -21 5 -22 -20 -16 l-26 7 30 -30 c26
-25 28 -31 15 -42 -12 -10 -13 -9 -7 6 5 14 3 17 -9 13 -9 -4 -21 -1 -27 5
-15 15 -26 0 -12 -17 10 -12 7 -14 -23 -11 -20 2 -36 -2 -36 -7 0 -6 -8 -7
-17 -4 -9 4 -20 2 -23 -5 -5 -8 -13 -7 -29 3 -17 10 -20 19 -16 43 l6 30 -14
-27 c-9 -15 -14 -38 -13 -51 2 -19 -1 -23 -16 -19 -10 2 -18 -1 -18 -7 0 -6
-7 -11 -15 -11 -8 0 -15 5 -15 11 0 6 -6 9 -13 6 -6 -2 -11 -10 -9 -17 1 -6
-7 -14 -18 -17 -11 -3 -20 -8 -20 -12 1 -16 38 -50 60 -54 15 -3 7 -5 -20 -6
l-45 -2 25 -22 c14 -12 26 -31 27 -42 1 -19 1 -19 -11 -2 -7 9 -18 17 -25 17
-6 0 -11 5 -11 10 0 6 -4 10 -10 10 -5 0 -7 -7 -4 -15 4 -8 1 -21 -5 -29 -6
-7 -7 -16 -3 -21 4 -4 0 -5 -8 -3 -8 3 -14 11 -13 17 2 6 -2 11 -7 11 -6 0 -8
-12 -6 -26 4 -19 1 -24 -10 -20 -17 6 -19 -5 -3 -21 16 -16 -34 -47 -65 -41
-15 3 -23 1 -20 -6 3 -7 -10 -11 -31 -11 -19 0 -35 4 -35 8 0 5 -5 5 -10 2 -6
-3 -10 1 -10 9 0 18 -8 20 -28 8 -18 -12 -13 -268 5 -265 7 2 13 -2 13 -8 0
-6 5 -7 12 -2 16 10 78 11 72 1 -2 -4 0 -9 6 -13 5 -3 10 0 10 9 0 9 15 17 43
21 23 4 52 13 64 21 14 9 33 12 48 8 19 -5 25 -2 25 10 0 12 9 16 34 16 19 0
36 6 39 13 2 6 7 9 11 6 4 -4 -3 -16 -15 -28 -19 -17 -20 -21 -6 -21 24 0 21
-29 -5 -57 -21 -22 -21 -24 -3 -17 20 7 20 7 1 -14 -31 -36 -3 -25 37 14 20
20 40 47 43 60 3 12 12 25 20 28 8 3 14 13 14 22 0 13 6 15 27 9 16 -4 25 -3
20 1 -4 4 1 16 10 26 10 11 18 29 18 41 0 16 7 23 25 25 26 4 73 32 53 32 -6
0 -9 9 -6 20 3 11 10 20 15 20 6 0 7 -7 4 -16 -5 -14 -4 -15 9 -4 9 7 14 19
11 26 -3 8 -1 13 4 11 10 -2 90 80 90 93 0 5 9 11 19 15 12 4 18 12 14 21 -3
9 1 14 12 14 9 0 14 4 10 9 -3 5 0 13 6 17 6 3 15 1 19 -6 4 -7 13 -9 19 -5 9
5 9 11 -1 23 -11 13 -10 15 5 9 19 -7 22 5 7 34 -12 21 -3 24 20 6 9 -7 16
-22 17 -34 1 -40 3 -44 13 -38 6 3 7 17 4 31 -4 17 -2 24 8 24 8 0 22 18 32
40 10 22 21 40 26 40 4 0 17 15 28 34 14 24 29 35 49 38 20 2 29 9 31 25 2 12
15 33 30 47 118 110 131 126 146 177 20 68 20 123 0 140 -8 7 -13 20 -11 30 5
19 -8 152 -18 185 -6 18 1 26 34 45 23 12 41 29 41 37 0 12 -4 12 -19 -2 -25
-22 -53 -17 -66 12 -5 12 -13 22 -17 22 -3 0 -20 -20 -37 -45 -17 -25 -45 -65
-62 -90 -35 -51 -65 -73 -82 -56 -7 7 -6 15 3 26 8 10 9 15 1 15 -7 0 -11 27
-11 80 0 88 11 108 77 136 46 20 67 55 59 101 -4 21 -9 68 -12 105 -8 86 -24
102 -64 63 l-29 -27 5 43 c9 88 15 111 29 105 7 -2 19 2 25 10 7 8 18 14 24
14 6 0 17 14 25 30 14 34 42 55 84 65 31 8 36 -8 13 -41 -16 -22 -11 -37 15
-46 12 -5 19 5 29 43 21 78 40 46 50 -87 5 -60 10 -116 12 -124 1 -8 -1 -37
-5 -64 -6 -36 -14 -50 -28 -53 -21 -6 -59 -70 -59 -99 0 -9 13 -32 30 -51 16
-18 30 -40 30 -47 0 -8 7 -19 15 -26 13 -11 15 -8 15 14 0 14 5 26 10 26 6 0
10 7 10 15 0 11 15 4 53 -23 108 -79 104 -65 -13 57 -49 52 -90 97 -90 100 1
15 57 69 78 75 12 4 22 15 22 25 0 10 7 24 15 31 20 16 19 28 -5 73 -27 51
-35 136 -13 144 9 3 24 1 34 -5 10 -7 26 -12 34 -12 9 0 41 -9 72 -20 32 -11
61 -20 65 -20 7 0 5 42 -4 79 -2 10 8 17 27 21 l30 7 -30 13 c-16 7 -34 12
-40 11 -5 0 -1 6 10 14 11 9 19 23 17 31 -2 8 4 17 12 20 8 3 17 17 20 30 5
17 20 31 49 44 32 14 37 19 20 19 -24 1 -33 21 -10 21 24 1 59 39 52 58 -4 15
0 21 17 26 17 4 20 8 10 15 -10 6 -1 14 32 31 25 12 46 25 46 28 0 4 -39 7
-88 7 -74 0 -92 3 -122 23 -24 16 -29 22 -15 21 11 -2 31 3 45 11 14 7 39 16
55 20 35 7 37 23 4 30 -31 8 -36 30 -7 30 25 1 85 47 74 57 -3 4 -12 1 -18 -5
-15 -15 -32 -16 -23 -2 4 6 -10 10 -34 10 -24 0 -41 5 -41 11 0 8 -4 8 -13 1
-20 -17 -41 3 -43 38 -1 21 4 34 15 38 24 9 109 66 87 58 -16 -5 -17 -4 -6 9
9 11 9 15 1 15 -7 0 -21 9 -33 20 l-22 20 27 28 c31 33 34 47 10 61 -16 9 -16
12 -3 21 8 5 10 10 4 10 -12 0 -34 -21 -34 -33 0 -4 4 -6 9 -2 5 3 12 2 15 -3
7 -12 -26 -12 -41 0 -7 5 -17 7 -23 3 -5 -3 -13 1 -16 9 -3 9 -12 16 -20 16
-7 0 -17 7 -22 15 -4 9 -18 17 -31 20 -13 2 -56 21 -97 41 -69 34 -94 60 -79
84 3 6 -2 14 -12 18 -10 4 -19 17 -20 29 -2 20 1 22 51 19 29 -1 57 -6 63 -9
5 -3 27 -7 49 -8 21 -1 44 -7 51 -12 7 -5 20 -7 30 -4 14 3 12 6 -12 16 -35
14 -121 54 -186 87 -26 13 -55 24 -64 24 -11 0 -15 5 -11 15 3 9 -1 18 -10 22
-8 3 -13 12 -10 20 3 8 2 12 -3 9 -5 -3 -12 9 -16 27 l-8 32 -4 -28 c-4 -29
-5 -29 -61 -23 -31 3 -58 5 -59 6 -2 0 -3 4 -3 9 0 6 18 11 40 13 62 5 43 23
-20 20 l-55 -2 29 16 c28 16 88 16 131 0 12 -5 11 -2 -5 8 -14 8 -47 18 -73
22 -37 5 -47 10 -45 23 4 17 28 19 67 7 17 -6 22 -5 19 5 -3 9 -33 18 -81 25
-42 5 -79 13 -83 16 -3 4 -7 18 -8 32 -1 25 -5 26 -80 11 -11 -2 -35 12 -63
40 -24 24 -53 47 -64 50 -36 12 -18 39 31 48 70 13 152 2 172 -23 10 -12 22
-19 27 -15 6 3 27 -1 47 -10 48 -20 58 -19 36 3 -26 24 -59 42 -77 42 -9 0
-20 11 -25 25 -5 14 -14 25 -19 25 -6 0 -8 -7 -5 -15 4 -9 0 -15 -9 -15 -21 0
-102 37 -116 53 -15 18 -118 22 -139 5 -12 -10 -16 -10 -19 0 -4 9 -92 12
-399 12 l-394 0 0 -321z m1510 -579 c0 -5 -9 -6 -20 -3 -11 3 -20 9 -20 13 0
5 9 6 20 3 11 -3 20 -9 20 -13z m160 -470 c11 -7 7 -10 -17 -10 -18 0 -33 5
-33 10 0 13 30 13 50 0z m80 -40 c0 -13 -20 -13 -40 0 -12 8 -9 10 13 10 15 0
27 -4 27 -10z m-710 -140 c0 -6 -9 -5 -20 2 -11 7 -20 16 -20 21 0 4 9 3 20
-3 11 -6 20 -15 20 -20z m-97 -7 c-7 -2 -19 -2 -25 0 -7 3 -2 5 12 5 14 0 19
-2 13 -5z m-705 -110 c-10 -2 -26 -2 -35 0 -10 3 -2 5 17 5 19 0 27 -2 18 -5z
m229 -14 c14 -14 6 -39 -12 -39 -7 0 -18 7 -25 15 -22 26 12 49 37 24z m-193
-14 c-4 -8 -11 -15 -16 -15 -6 0 -5 6 2 15 7 8 14 15 16 15 2 0 1 -7 -2 -15z
m-64 1 c0 -3 -5 -17 -11 -33 -9 -25 -11 -26 -21 -10 -12 23 -4 47 17 47 8 0
15 -2 15 -4z m326 -33 c-10 -10 -19 5 -10 18 6 11 8 11 12 0 2 -7 1 -15 -2
-18z m424 -724 c0 -5 -4 -9 -10 -9 -5 0 -10 7 -10 16 0 8 5 12 10 9 6 -3 10
-10 10 -16z m-41 -53 c7 -8 8 -17 3 -19 -4 -3 -13 3 -20 14 -14 22 0 26 17 5z
m81 -44 c0 -5 -7 -9 -15 -9 -8 0 -15 4 -15 9 0 4 7 8 15 8 8 0 15 -4 15 -8z
m-56 -32 c5 -5 19 -4 32 0 20 8 24 6 24 -10 0 -11 -5 -20 -11 -20 -8 0 -10
-12 -6 -35 5 -33 -6 -55 -21 -40 -3 3 0 10 7 14 11 7 11 10 0 17 -8 5 -18 9
-24 9 -5 1 -22 6 -37 13 -34 14 -29 47 6 36 31 -10 10 9 -27 23 l-32 12 40 -6
c22 -3 44 -9 49 -13z m326 -99 c0 -33 -27 -52 -55 -39 -43 20 -26 51 30 56 19
1 25 -3 25 -17z m-288 -35 c9 -12 0 -65 -13 -82 -5 -6 -7 -13 -4 -15 2 -3 -5
-5 -16 -6 -15 -1 -18 2 -11 10 5 7 13 22 16 34 6 18 4 22 -8 17 -21 -8 -31 19
-17 45 12 21 38 19 53 -3z m-122 -25 c0 -6 -4 -13 -10 -16 -5 -3 -10 1 -10 9
0 9 5 16 10 16 6 0 10 -4 10 -9z m370 -1 c0 -5 -4 -10 -10 -10 -5 0 -10 5 -10
10 0 6 5 10 10 10 6 0 10 -4 10 -10z m-320 -31 c0 -6 -4 -7 -10 -4 -5 3 -10
11 -10 16 0 6 5 7 10 4 6 -3 10 -11 10 -16z m-50 -89 c0 -5 -4 -10 -10 -10 -5
0 -10 5 -10 10 0 6 5 10 10 10 6 0 10 -4 10 -10z m100 -4 c0 -2 -7 -7 -16 -10
-8 -3 -12 -2 -9 4 6 10 25 14 25 6z m-53 -43 c-3 -10 -5 -4 -5 12 0 17 2 24 5
18 2 -7 2 -21 0 -30z m-67 -13 c0 -5 -4 -10 -10 -10 -5 0 -10 5 -10 10 0 6 5
10 10 10 6 0 10 -4 10 -10z m-120 -20 c0 -5 -5 -10 -11 -10 -5 0 -7 5 -4 10 3
6 8 10 11 10 2 0 4 -4 4 -10z m-37 -15 c4 -8 2 -17 -3 -20 -6 -4 -10 3 -10 14
0 25 6 27 13 6z m47 -65 c0 -5 -2 -10 -4 -10 -3 0 -8 5 -11 10 -3 6 -1 10 4
10 6 0 11 -4 11 -10z m169 -73 c-1 -24 -3 -26 -6 -9 -2 12 -8 20 -13 17 -4 -3
-6 4 -3 15 8 30 23 13 22 -23z m-474 -519 c-4 -13 -13 -30 -21 -38 -12 -12
-14 -12 -14 3 0 9 5 17 11 17 6 0 8 9 4 20 -5 14 -2 20 10 20 12 0 15 -6 10
-22z"/>
<path d="M3915 4589 c-4 -5 -15 -7 -25 -4 -14 4 -16 1 -13 -19 3 -13 0 -27 -6
-30 -6 -4 -9 -1 -5 7 3 8 -2 17 -12 21 -13 5 -15 2 -12 -19 4 -16 1 -24 -6
-22 -6 2 -17 -3 -23 -12 -12 -14 -14 -14 -27 3 -8 10 -20 15 -26 11 -8 -5 -7
-11 2 -22 10 -12 9 -17 -5 -28 -10 -7 -16 -19 -15 -26 2 -8 -6 -14 -17 -15
-11 -1 -24 -2 -30 -4 -5 -1 -13 -2 -16 -2 -3 1 -3 -12 -1 -27 5 -33 -16 -52
-30 -27 -5 9 -14 14 -20 10 -24 -15 14 36 42 56 26 19 41 50 24 50 -3 0 -64
-30 -135 -66 -141 -73 -209 -125 -239 -185 -11 -21 -31 -50 -46 -66 l-25 -27
2 -294 c3 -281 4 -294 23 -315 19 -21 21 -36 22 -187 1 -157 19 -471 30 -516
4 -17 -12 -36 -78 -94 -46 -40 -172 -154 -281 -254 -109 -99 -208 -185 -220
-189 -25 -9 -79 -59 -108 -98 l-19 -27 35 -43 c19 -24 37 -56 41 -71 3 -15 9
-30 14 -33 5 -3 36 -61 69 -129 33 -68 70 -131 82 -140 18 -12 23 -26 24 -63
0 -41 -4 -53 -30 -79 -30 -30 -55 -90 -55 -133 0 -12 -7 -32 -16 -46 -14 -21
-14 -26 1 -54 11 -22 23 -31 40 -31 28 0 42 -17 26 -33 -31 -31 -4 -138 75
-304 l54 -113 -20 -39 c-24 -48 -57 -75 -118 -97 -132 -48 -181 -88 -281 -231
-14 -20 -44 -55 -67 -77 -64 -64 -87 -119 -103 -246 -5 -41 -9 -88 -8 -105 0
-16 -3 -47 -7 -67 l-7 -38 1116 0 1115 0 0 249 0 249 -92 0 c-128 -1 -256 43
-338 114 -25 22 -70 105 -70 129 0 9 -9 24 -20 34 -11 10 -20 23 -20 30 0 6
-11 26 -25 45 -13 18 -22 37 -19 42 3 5 0 15 -6 23 -9 11 -9 15 -1 15 6 0 11
9 11 20 0 13 5 18 15 14 8 -4 15 -12 15 -20 0 -8 5 -14 11 -14 16 0 3 62 -17
77 -10 7 -12 13 -4 18 5 3 7 12 3 18 -4 7 -6 24 -4 39 1 16 -2 28 -8 28 -6 0
-11 8 -11 18 -1 13 -4 12 -14 -7 -11 -19 -14 -21 -19 -7 -8 19 2 48 13 41 5
-3 6 4 3 15 -4 16 0 20 17 20 l22 0 -19 33 c-11 17 -23 30 -27 29 -5 -2 -13 2
-17 10 -7 10 -9 10 -9 1 0 -7 -7 -13 -16 -13 -8 0 -12 -5 -9 -10 3 -5 -1 -10
-10 -10 -23 0 -42 47 -28 69 9 14 9 21 0 30 -19 19 -36 13 -29 -11 5 -21 5
-21 -14 -2 -11 10 -16 20 -12 22 10 4 11 36 1 46 -14 14 -13 46 2 46 8 0 15 5
15 11 0 6 -9 8 -21 4 -19 -6 -20 -4 -14 24 4 20 3 31 -4 31 -17 0 -13 20 5 27
22 8 43 -15 24 -27 -9 -6 -10 -10 -3 -10 6 0 15 -9 18 -20 4 -12 15 -20 28
-20 16 0 18 -3 8 -9 -9 -6 -11 -18 -6 -42 9 -44 22 -59 49 -59 20 0 66 -32 66
-46 0 -7 -44 18 -52 30 -4 6 -10 8 -13 4 -3 -3 12 -25 34 -49 23 -23 41 -47
41 -53 0 -6 6 -2 12 8 8 15 8 21 0 24 -20 6 -13 20 7 15 13 -3 18 -12 16 -25
-3 -14 0 -18 11 -14 16 6 70 -45 80 -76 6 -21 24 -24 24 -5 0 14 39 -33 40
-48 0 -5 18 -22 39 -37 l38 -27 -3 24 c-2 26 10 33 22 14 3 -6 15 -9 25 -6 11
3 26 -1 33 -9 22 -22 38 -18 24 6 -7 11 -24 20 -37 20 -13 0 -21 3 -18 7 4 3
2 12 -3 18 -8 9 -6 14 4 18 11 4 13 1 9 -10 -5 -12 -1 -14 15 -9 36 12 112 -4
112 -22 0 -12 3 -13 12 -4 21 21 63 14 78 -13 22 -40 28 -13 29 129 l2 131
-58 3 c-87 4 -103 6 -103 15 0 4 -11 7 -24 7 -26 0 -50 22 -38 35 4 5 -1 5
-10 2 -20 -7 -34 8 -16 17 7 4 3 4 -9 2 -24 -4 -73 14 -73 27 0 12 18 8 34 -9
17 -16 36 -11 36 10 0 8 9 16 21 19 12 3 18 10 14 16 -4 8 -12 8 -26 0 -19 -9
-19 -9 -7 12 7 13 22 31 33 42 20 18 20 18 -2 12 -17 -5 -23 -2 -23 10 0 9 -4
13 -10 10 -6 -3 -10 -1 -10 4 0 17 -30 13 -36 -4 -8 -20 -29 -19 -50 2 -15 16
-17 16 -30 -2 -14 -19 -19 -11 -15 23 1 6 -3 12 -9 12 -5 0 -10 7 -10 15 0 18
26 20 33 3 3 -7 6 -3 6 8 1 18 -3 20 -26 16 -16 -3 -32 -10 -36 -16 -6 -8 -10
-7 -14 2 -2 6 -12 12 -20 12 -12 0 -13 3 -4 14 10 12 6 15 -21 21 -56 11 -68
16 -63 25 3 5 1 11 -5 15 -5 3 -10 1 -10 -4 0 -6 -7 -11 -15 -11 -13 0 -14 4
-4 21 7 14 17 19 30 16 10 -3 19 -1 19 4 0 9 -67 10 -84 1 -4 -2 -2 -8 5 -13
11 -7 10 -9 -4 -9 -10 0 -15 -5 -12 -10 3 -6 -1 -13 -10 -16 -9 -4 -21 -16
-25 -28 -7 -17 -9 -18 -9 -3 -1 9 -5 17 -10 17 -5 0 -8 12 -8 27 0 15 -5 29
-11 31 -5 1 -8 12 -5 22 4 15 0 20 -15 20 -29 0 -80 21 -64 27 19 7 14 23 -7
23 -11 0 -23 5 -26 10 -3 6 1 10 10 10 10 0 15 7 13 18 -2 9 3 22 12 29 10 8
11 12 3 13 -7 0 -18 -9 -25 -20 -7 -11 -16 -20 -21 -20 -4 0 -5 5 -2 10 3 6
-1 10 -9 10 -8 0 -19 -7 -24 -16 -5 -9 -14 -14 -20 -11 -10 7 -23 61 -26 105
-1 13 -9 28 -19 33 -22 13 -24 61 -2 53 8 -4 15 -1 15 4 0 6 -10 12 -22 14
-24 3 -40 48 -18 48 6 0 9 4 5 9 -3 5 -1 12 5 16 15 9 12 28 -3 22 -10 -4 -13
4 -11 31 1 21 2 45 3 56 1 12 6 16 16 12 16 -6 21 9 5 19 -5 3 -7 12 -3 20 3
9 -1 15 -11 15 -9 0 -16 -8 -16 -19 0 -11 -4 -22 -10 -26 -5 -3 -7 -12 -4 -19
9 -22 -12 -27 -35 -8 -12 9 -25 38 -31 65 -6 26 -15 68 -20 94 -11 52 -8 58
33 69 23 5 29 3 34 -15 3 -11 10 -21 15 -21 5 0 6 10 2 23 -5 12 -8 32 -7 45
0 12 -5 22 -12 22 -18 0 -29 38 -17 53 5 7 10 53 9 102 -1 82 2 97 29 150 17
33 38 72 48 88 10 15 14 27 10 27 -12 -1 -67 -87 -99 -158 -15 -31 -31 -65
-37 -75 -22 -43 -48 -176 -47 -240 1 -37 -1 -70 -4 -74 -10 -9 -45 36 -70 87
-21 45 -32 146 -17 155 5 3 6 14 3 25 -3 11 2 31 10 44 9 13 13 33 11 44 -3
11 -1 23 5 26 6 4 11 17 11 28 0 12 7 30 16 40 10 10 18 32 19 48 3 31 28 59
53 60 6 0 12 7 12 15 0 9 -6 12 -15 9 -9 -4 -15 0 -15 9 0 19 50 56 68 50 6
-3 12 0 12 6 0 6 -4 11 -10 11 -5 0 -10 9 -10 21 0 13 10 23 30 30 17 6 30 16
30 21 0 7 5 6 13 -1 11 -8 17 -5 26 17 10 22 10 25 0 15 -19 -19 -29 -16 -29
7 0 11 7 20 15 20 9 0 30 7 48 16 22 12 32 13 35 5 4 -12 42 30 42 46 0 5 48
14 108 21 137 16 318 50 360 68 66 29 107 48 112 53 22 25 69 48 81 40 8 -5
19 -9 24 -9 6 0 4 4 -3 8 -15 10 31 56 66 67 19 5 23 3 20 -12 -2 -14 3 -18
26 -16 38 3 45 12 21 29 -19 14 -19 16 -2 25 16 9 17 35 17 314 0 184 -4 305
-9 305 -6 0 -11 -17 -13 -37 -4 -46 -28 -58 -28 -13 0 52 -25 30 -26 -23 -1
-32 -8 -55 -25 -76 -30 -37 -34 -38 -37 -4 -1 15 -6 31 -11 36 -15 15 -22 -11
-12 -48 10 -38 5 -75 -11 -75 -6 0 -8 -13 -4 -32 6 -32 6 -32 -8 -12 -9 12
-18 41 -22 64 l-7 43 -29 -32 c-16 -18 -27 -39 -25 -46 3 -7 9 -34 12 -61 6
-38 5 -46 -5 -38 -6 6 -14 30 -17 53 -4 28 -9 39 -17 32 -18 -14 -87 -23 -163
-22 l-72 2 -10 -38 c-6 -21 -11 -58 -11 -83 0 -25 -7 -58 -15 -74 -9 -16 -13
-37 -10 -47 4 -11 9 -31 11 -46 5 -27 5 -27 -15 -9 -11 10 -25 34 -31 52 -8
23 -18 34 -31 34 -26 0 -24 -26 5 -76 22 -38 22 -41 4 -36 -23 6 -56 47 -64
79 -5 17 -13 23 -35 23 -16 0 -32 7 -38 17 -8 15 -11 15 -25 3 -13 -10 -20
-10 -28 -2 -7 7 -30 12 -51 12 -28 0 -45 6 -58 21 -10 12 -17 25 -14 28 2 4
-6 8 -17 8 -27 2 -29 5 -39 55 -23 118 4 316 52 381 11 16 18 35 15 43 -13 33
97 207 136 217 21 5 21 5 6 -7 -10 -7 -18 -18 -18 -24 0 -5 -28 -47 -61 -91
-34 -45 -59 -84 -56 -87 2 -3 13 5 24 18 10 13 29 29 41 36 21 11 24 10 43
-23 15 -26 42 -45 103 -76 45 -22 98 -56 117 -74 53 -49 74 -52 90 -13 10 25
10 33 1 36 -17 5 -55 81 -48 97 3 8 -12 25 -35 40 -42 30 -48 52 -25 95 14 24
13 25 -27 40 -34 12 -43 21 -45 43 -2 15 -8 27 -13 27 -6 0 -7 5 -3 12 5 8 1
9 -12 5 -34 -12 38 42 109 82 l69 38 -71 1 c-38 1 -73 -3 -76 -9z m18 -45
c-37 -26 -78 -56 -90 -67 -13 -11 -23 -15 -23 -9 0 7 23 28 50 48 50 36 63 51
34 40 -9 -3 -12 -2 -9 5 4 5 14 7 24 4 9 -3 26 2 37 10 10 8 25 15 32 15 7 0
-17 -21 -55 -46z m-296 -109 c-15 -14 -36 -25 -47 -25 -10 0 -27 -2 -37 -5
-10 -3 9 8 42 24 73 37 78 37 42 6z m-33 -113 c-9 -20 -11 -30 -13 -59 -1 -30
-19 -29 -33 2 -6 14 -15 25 -20 25 -11 0 -10 -47 1 -54 5 -3 11 -15 14 -27 5
-20 5 -20 -13 -4 -17 16 -19 15 -30 -5 -10 -18 -8 -25 13 -46 l25 -25 11 33
c13 37 40 70 52 62 4 -2 -10 -32 -31 -66 -22 -34 -40 -65 -40 -70 0 -4 -5 -8
-11 -8 -8 0 -8 5 1 15 17 20 6 44 -20 42 -21 -1 -22 -9 -5 -49 4 -11 3 -18 -3
-18 -6 0 -14 9 -17 20 -10 31 -22 24 -30 -17 -7 -40 20 -117 37 -106 6 3 3 -5
-5 -18 -18 -28 -23 -97 -12 -154 8 -37 9 -38 16 -15 6 21 7 19 8 -15 1 -22 6
-58 11 -80 9 -39 -2 -95 -19 -95 -4 0 -21 70 -37 156 l-29 156 -11 -118 c-10
-116 -10 -118 -18 -64 -4 31 -6 150 -4 265 3 192 5 213 25 251 29 54 47 68 82
61 19 -4 33 -1 40 7 7 8 21 12 32 9 16 -5 20 -2 18 13 -2 10 1 26 6 34 8 13
10 12 13 -3 2 -10 0 -26 -4 -35z m49 -87 c-3 -9 -8 -14 -10 -11 -3 3 -2 9 2
15 9 16 15 13 8 -4z m177 0 c0 -8 -2 -15 -4 -15 -2 0 -6 7 -10 15 -3 8 -1 15
4 15 6 0 10 -7 10 -15z m569 -429 c-9 -8 -10 -7 -5 7 3 10 7 26 7 35 1 9 4 6
6 -7 3 -13 -1 -28 -8 -35z m-85 -11 c-3 -14 -10 -25 -16 -25 -5 0 -7 -4 -4 -9
4 -5 1 -22 -5 -38 l-12 -28 -14 48 c-13 42 -16 46 -34 36 -31 -16 -43 -6 -22
19 10 13 36 29 58 36 46 16 60 5 49 -39z m-104 -49 c0 -2 -3 -11 -6 -20 -9
-23 -24 -20 -24 4 0 11 7 20 15 20 8 0 15 -2 15 -4z m-747 -106 c4 -22 3 -29
-2 -20 -5 8 -11 35 -15 60 -6 50 6 21 17 -40z m756 49 c-7 -14 -8 -45 -4 -91
5 -52 4 -69 -4 -63 -7 3 -9 14 -7 23 3 10 -3 31 -14 47 -11 17 -20 26 -20 22
0 -4 7 -19 16 -33 9 -13 14 -27 11 -30 -8 -8 -57 80 -57 102 1 16 3 15 15 -6
l15 -25 -6 26 c-4 19 -1 28 11 33 9 3 21 4 25 1 5 -3 11 -1 15 5 12 19 16 10
4 -11z m-123 -64 c19 -47 17 -55 -6 -25 -18 23 -27 60 -14 60 3 0 12 -16 20
-35z m-266 -26 c0 -11 5 -29 11 -41 6 -11 8 -22 5 -25 -6 -6 -36 63 -36 84 0
8 5 11 10 8 6 -3 10 -15 10 -26z m-78 -97 l23 -25 -23 12 c-25 14 -62 67 -62
92 0 8 6 21 13 28 10 10 13 3 19 -35 4 -27 16 -57 30 -72z m28 65 c10 -26 14
-49 10 -52 -12 -7 -50 58 -50 85 0 35 21 18 40 -33z m-114 16 c-10 -10 -19 5
-10 18 6 11 8 11 12 0 2 -7 1 -15 -2 -18z m-83 10 c-7 -2 -19 -2 -25 0 -7 3
-2 5 12 5 14 0 19 -2 13 -5z m141 -112 c-7 -8 -54 42 -54 58 0 9 11 2 29 -19
16 -19 27 -37 25 -39z m-250 -40 c-9 -9 -44 33 -44 53 0 17 4 14 24 -14 13
-19 22 -37 20 -39z m-114 39 c-6 -11 -13 -20 -15 -20 -3 0 -5 9 -5 20 0 11 7
20 15 20 13 0 14 -4 5 -20z m195 -5 c26 -21 28 -24 10 -25 -11 0 -28 9 -38 20
-32 38 -16 41 28 5z m74 12 c6 -8 29 -22 51 -32 22 -10 38 -20 36 -22 -5 -5
-126 55 -126 62 0 11 28 4 39 -8z m214 -58 c3 -10 2 -20 0 -23 -10 -9 -23 5
-23 24 0 10 -7 20 -15 24 -8 3 -15 1 -15 -4 0 -6 5 -10 10 -10 6 0 10 -9 10
-20 0 -25 -20 -27 -21 -2 -1 9 -3 27 -4 39 -2 22 -2 22 26 6 15 -9 30 -24 32
-34z m227 31 c0 -5 -4 -10 -10 -10 -5 0 -10 5 -10 10 0 6 5 10 10 10 6 0 10
-4 10 -10z m-115 -20 c3 -5 1 -10 -4 -10 -6 0 -11 5 -11 10 0 6 2 10 4 10 3 0
8 -4 11 -10z m-50 -10 c3 -5 -1 -10 -9 -10 -9 0 -16 5 -16 10 0 6 4 10 9 10 6
0 13 -4 16 -10z m-171 -29 c3 -4 3 -11 0 -14 -8 -7 -44 4 -44 14 0 12 37 12
44 0z m-74 -16 c0 -8 -7 -15 -15 -15 -8 0 -15 7 -15 15 0 8 7 15 15 15 8 0 15
-7 15 -15z m100 -124 c0 -5 -7 -14 -15 -21 -12 -10 -15 -10 -15 2 0 8 3 18 7
21 9 10 23 9 23 -2z m100 -1501 c0 -5 -5 -10 -11 -10 -5 0 -7 -5 -3 -12 4 -7
3 -8 -4 -4 -17 10 -15 36 3 36 8 0 15 -4 15 -10z m10 -56 c0 -2 -7 -4 -15 -4
-8 0 -15 4 -15 10 0 5 7 7 15 4 8 -4 15 -8 15 -10z m90 -35 c-7 -11 -14 -18
-17 -15 -8 8 5 36 17 36 7 0 7 -6 0 -21z m130 -44 c-7 -9 -15 -13 -19 -10 -3
3 1 10 9 15 21 14 24 12 10 -5z m-1190 -52 c0 -29 -35 -73 -58 -73 -10 0 -12
7 -7 28 16 65 65 99 65 45z m1443 -30 c9 -9 -13 -34 -24 -27 -14 8 -11 34 4
34 8 0 17 -3 20 -7z m-53 -24 c0 -15 -18 -19 -23 -6 -3 8 1 14 9 14 8 0 14 -4
14 -8z m-57 -16 c8 -8 -11 -33 -25 -33 -6 0 -4 8 3 17 12 15 12 16 -3 10 -10
-3 -18 -2 -18 3 0 11 33 14 43 3z m-258 -124 c11 -17 0 -20 -21 -4 -17 13 -17
14 -2 15 9 0 20 -5 23 -11z m-66 -164 c-12 -11 -39 19 -39 43 0 10 8 7 24 -9
17 -16 22 -27 15 -34z m-569 -346 c0 -6 -4 -7 -10 -4 -5 3 -10 11 -10 16 0 6
5 7 10 4 6 -3 10 -11 10 -16z"/>
<path d="M3437 3973 c-11 -10 -8 -53 3 -53 6 0 10 14 10 30 0 31 -2 35 -13 23z"/>
<path d="M4469 4065 c-8 -15 5 -72 13 -59 4 6 4 24 -1 39 -4 16 -10 25 -12 20z"/>
<path d="M4411 3984 c0 -11 3 -14 6 -6 3 7 2 16 -1 19 -3 4 -6 -2 -5 -13z"/>
<path d="M1430 3925 c0 -8 4 -15 10 -15 5 0 7 7 4 15 -4 8 -8 15 -10 15 -2 0
-4 -7 -4 -15z"/>
<path d="M4100 3279 c-19 -4 -41 -6 -47 -4 -7 2 -12 -1 -10 -8 1 -7 -6 -11
-15 -9 -10 2 -18 -2 -18 -9 0 -6 -7 -9 -15 -5 -19 7 -47 -3 -39 -15 8 -14 -15
-38 -50 -53 -38 -16 -167 -125 -190 -161 -16 -25 -16 -25 2 -14 10 6 27 24 38
40 10 15 30 34 44 41 14 7 27 16 30 19 3 3 32 16 65 29 33 13 67 29 76 37 22
18 46 16 77 -6 27 -19 32 -21 54 -21 6 0 8 -3 5 -7 -12 -11 66 -33 120 -33 28
0 64 -5 79 -10 24 -9 25 -9 14 5 -7 8 -10 18 -6 22 3 3 6 2 6 -4 0 -23 30 -7
35 19 7 31 -13 68 -25 48 -4 -7 -13 -2 -24 14 -10 16 -26 26 -40 26 -13 0 -29
6 -35 14 -6 8 -25 19 -41 26 -16 7 -27 16 -24 21 6 11 -18 10 -66 -2z"/>
<path d="M4145 3034 c-11 -2 -44 -9 -73 -15 -30 -6 -52 -13 -49 -15 2 -2 26 0
54 6 57 12 106 0 97 -24 -4 -10 -21 -14 -62 -13 -47 1 -70 -6 -131 -36 -41
-21 -76 -35 -79 -32 -9 9 38 53 75 70 19 9 32 19 30 22 -7 6 -57 -21 -89 -50
-33 -29 -71 -109 -50 -106 4 1 9 1 12 0 16 -6 97 -6 89 0 -8 4 -7 8 2 12 10 4
10 6 2 6 -20 1 -15 25 7 39 26 16 36 10 44 -28 7 -37 28 -46 96 -41 48 3 53 6
66 36 8 19 11 40 8 48 -9 25 12 28 39 7 14 -11 30 -20 35 -20 5 0 15 -6 21
-14 10 -12 8 -16 -11 -21 -25 -8 -55 -35 -39 -35 5 0 13 5 16 10 3 6 24 10 45
10 48 0 58 13 25 34 -28 18 -34 46 -10 46 9 0 15 9 15 24 0 43 -118 94 -185
80z m-43 -146 c-6 -6 -15 -8 -19 -4 -4 4 -1 11 7 16 19 12 27 3 12 -12z"/>
<path d="M478 2993 c7 -3 16 -2 19 1 4 3 -2 6 -13 5 -11 0 -14 -3 -6 -6z"/>
<path d="M1276 2603 c8 -61 11 -63 19 -19 8 39 2 66 -15 66 -8 0 -9 -16 -4
-47z"/>
<path d="M1033 2575 c0 -8 4 -12 9 -9 4 3 8 9 8 15 0 5 -4 9 -8 9 -5 0 -9 -7
-9 -15z"/>
<path d="M1023 2505 c-1 -49 14 -53 19 -5 2 24 -1 40 -7 40 -6 0 -11 -16 -12
-35z"/>
<path d="M3607 2363 c-4 -3 -7 -18 -7 -32 l0 -26 19 25 c18 23 19 40 2 40 -4
0 -11 -3 -14 -7z"/>
<path d="M121 2316 c-7 -8 -23 -17 -36 -20 -14 -4 -25 -13 -25 -21 0 -8 -5
-15 -11 -15 -6 0 -8 -9 -4 -20 5 -15 2 -20 -10 -20 -12 0 -16 6 -12 19 3 14 1
18 -9 14 -19 -7 -18 -58 2 -74 14 -11 18 -10 30 6 8 11 14 14 14 6 0 -8 6 -11
15 -7 50 20 48 22 40 -23 -4 -27 -3 -47 5 -55 8 -11 6 -18 -12 -30 l-22 -16
22 0 c13 0 20 -4 17 -10 -3 -5 1 -10 11 -10 14 0 14 -2 3 -16 -10 -13 -10 -17
2 -25 8 -5 21 -9 29 -9 12 0 12 2 1 9 -10 7 -10 10 -1 16 7 4 16 2 20 -5 5 -7
16 -9 30 -5 l22 7 -23 23 c-13 12 -27 20 -31 18 -5 -2 -8 1 -8 6 0 6 4 11 9
11 5 0 12 12 16 27 3 15 12 31 18 35 9 6 9 10 -1 17 -11 6 -8 10 11 15 13 3
28 14 31 23 4 10 15 33 26 52 10 18 16 40 12 50 -6 13 -7 12 -10 -6 -2 -13 -8
-23 -13 -23 -5 0 -9 -5 -9 -11 0 -7 -8 -18 -17 -25 -15 -10 -21 -10 -35 3 -10
9 -18 24 -18 35 0 10 -7 18 -16 18 -11 0 -14 5 -10 17 11 29 -32 44 -53 19z
m73 -115 c8 -12 -14 -19 -37 -13 -15 4 -16 7 -5 13 17 11 35 11 42 0z"/>
<path d="M3655 2300 c-3 -5 -1 -10 4 -10 6 0 11 5 11 10 0 6 -2 10 -4 10 -3 0
-8 -4 -11 -10z"/>
<path d="M4430 2290 c0 -5 -10 -10 -22 -10 -13 0 -27 -4 -33 -8 -13 -10 -17
-72 -4 -72 6 0 8 -9 4 -20 -4 -14 -2 -20 8 -20 10 0 13 -7 10 -20 -4 -14 1
-21 21 -26 14 -3 24 -9 22 -13 -3 -4 -1 -13 4 -20 6 -11 17 -5 46 24 37 37 37
39 17 48 -12 5 -24 20 -27 33 -4 15 -14 24 -26 24 -20 0 -36 17 -26 27 4 4 12
1 18 -5 7 -7 26 -12 44 -12 17 0 44 -10 59 -22 27 -21 28 -21 41 -3 8 10 14
35 13 54 0 20 -3 30 -6 24 -7 -19 -43 -16 -91 7 -45 22 -72 26 -72 10z m60
-160 c0 -5 -2 -10 -4 -10 -3 0 -8 5 -11 10 -3 6 -1 10 4 10 6 0 11 -4 11 -10z"/>
<path d="M830 2260 c0 -5 9 -10 20 -10 11 0 20 5 20 10 0 6 -9 10 -20 10 -11
0 -20 -4 -20 -10z"/>
<path d="M840 2226 c0 -2 7 -9 15 -16 12 -10 15 -10 15 4 0 9 -7 16 -15 16 -8
0 -15 -2 -15 -4z"/>
<path d="M4562 2142 c-16 -34 -15 -42 3 -42 8 0 15 -5 15 -11 0 -6 -8 -8 -19
-4 -28 9 -34 -9 -11 -36 l19 -24 1 23 c0 12 6 22 13 22 11 0 12 11 7 45 -9 57
-12 60 -28 27z m18 -22 c0 -5 -5 -10 -11 -10 -5 0 -7 5 -4 10 3 6 8 10 11 10
2 0 4 -4 4 -10z"/>
<path d="M4400 2090 c0 -5 5 -10 10 -10 6 0 10 5 10 10 0 6 -4 10 -10 10 -5 0
-10 -4 -10 -10z"/>
<path d="M3706 2055 c-3 -8 -1 -15 4 -15 6 0 10 7 10 15 0 8 -2 15 -4 15 -2 0
-6 -7 -10 -15z"/>
<path d="M4360 2049 c0 -11 4 -18 9 -15 5 4 12 0 14 -6 4 -9 6 -7 6 3 1 9 11
21 24 27 20 10 19 11 -15 11 -32 1 -38 -2 -38 -20z"/>
<path d="M0 2035 c1 -26 2 -28 11 -12 8 14 8 22 0 30 -8 8 -11 3 -11 -18z"/>
<path d="M780 2046 c0 -24 15 -26 28 -5 11 16 9 19 -8 19 -11 0 -20 -6 -20
-14z"/>
<path d="M4452 2048 c-16 -16 -15 -25 4 -32 12 -4 15 -2 10 9 -3 9 0 15 10 15
8 0 12 5 9 10 -8 13 -18 13 -33 -2z"/>
<path d="M38 2043 c7 -3 16 -2 19 1 4 3 -2 6 -13 5 -11 0 -14 -3 -6 -6z"/>
<path d="M4585 2030 c-3 -5 -1 -10 4 -10 6 0 11 5 11 10 0 6 -2 10 -4 10 -3 0
-8 -4 -11 -10z"/>
<path d="M3731 2013 c-1 -12 -7 -23 -13 -26 -7 -2 -10 -8 -6 -12 10 -10 58 11
58 25 0 5 -6 10 -14 10 -8 0 -17 6 -19 13 -3 6 -6 2 -6 -10z"/>
<path d="M4344 2014 c3 -8 6 -18 6 -20 0 -2 5 -4 10 -4 16 0 11 27 -6 34 -12
5 -15 2 -10 -10z"/>
<path d="M290 2016 c0 -2 7 -7 16 -10 8 -3 12 -2 9 4 -6 10 -25 14 -25 6z"/>
<path d="M4570 1996 c0 -9 5 -16 10 -16 6 0 10 4 10 9 0 6 -4 13 -10 16 -5 3
-10 -1 -10 -9z"/>
<path d="M215 1989 c-4 -6 -4 -13 -1 -17 10 -9 46 -10 40 0 -8 13 10 9 34 -8
12 -8 22 -22 22 -31 0 -13 3 -13 15 -3 8 7 15 22 15 34 0 17 -2 18 -10 6 -7
-11 -10 -11 -10 -2 0 7 -6 12 -12 11 -7 -1 -26 3 -41 9 -35 15 -44 15 -52 1z"/>
<path d="M20 1960 c0 -5 5 -10 11 -10 5 0 7 5 4 10 -3 6 -8 10 -11 10 -2 0 -4
-4 -4 -10z"/>
<path d="M369 1950 c-20 -13 -5 -22 21 -12 18 7 20 10 8 14 -8 4 -21 2 -29 -2z"/>
<path d="M567 1930 c-3 -11 -1 -23 4 -26 5 -3 9 -1 9 5 0 5 3 16 6 25 3 9 2
16 -4 16 -5 0 -12 -9 -15 -20z"/>
<path d="M3808 1943 c7 -3 16 -2 19 1 4 3 -2 6 -13 5 -11 0 -14 -3 -6 -6z"/>
<path d="M3735 1931 c3 -5 1 -12 -5 -16 -20 -12 -10 -22 18 -17 15 3 21 7 15
9 -7 3 -13 11 -13 19 0 8 -5 14 -11 14 -5 0 -8 -4 -4 -9z"/>
<path d="M4449 1936 c-2 -2 -29 -7 -59 -10 -30 -4 -68 -9 -85 -12 -16 -3 -41
-6 -55 -5 -92 3 -115 0 -122 -13 -4 -7 -19 -17 -33 -20 -22 -6 -36 -35 -17
-37 50 -5 79 -2 90 8 18 17 65 16 108 -2 25 -10 69 -14 147 -13 62 0 127 -2
145 -6 l32 -8 0 41 c0 35 -3 41 -22 43 -37 2 -42 3 -75 21 -32 17 -46 20 -54
13z"/>
<path d="M470 1920 c0 -5 5 -10 11 -10 5 0 7 5 4 10 -3 6 -8 10 -11 10 -2 0
-4 -4 -4 -10z"/>
<path d="M570 1886 c0 -2 7 -6 15 -10 8 -3 15 -1 15 4 0 6 -7 10 -15 10 -8 0
-15 -2 -15 -4z"/>
<path d="M106 1873 c-4 -4 -18 -9 -32 -10 -57 -8 -74 -21 -74 -56 l0 -34 113
-3 c124 -2 227 -2 242 1 6 1 18 -2 29 -6 15 -7 17 -5 12 13 -6 18 -3 21 19 19
16 -1 32 -11 39 -26 l13 -23 8 33 c8 32 8 33 12 8 3 -16 15 -32 31 -40 42 -21
48 -22 35 -8 -18 18 -16 34 2 19 12 -10 15 -10 15 2 0 16 -54 51 -64 41 -3 -3
-6 -1 -6 5 0 7 5 12 11 12 5 0 7 5 4 10 -4 6 -14 10 -23 8 -10 -1 -21 0 -27 4
-5 3 -50 9 -98 12 -49 3 -92 8 -95 10 -14 8 -159 16 -166 9z"/>
<path d="M540 1820 c0 -5 4 -10 9 -10 6 0 13 5 16 10 3 6 -1 10 -9 10 -9 0
-16 -4 -16 -10z"/>
<path d="M750 1804 c0 -17 22 -14 28 4 2 7 -3 12 -12 12 -9 0 -16 -7 -16 -16z"/>
<path d="M4046 1810 c-17 -6 -18 -7 -3 -13 9 -3 19 -2 23 4 9 15 2 18 -20 9z"/>
<path d="M4081 1804 c0 -11 3 -14 6 -6 3 7 2 16 -1 19 -3 4 -6 -2 -5 -13z"/>
<path d="M783 1774 c-3 -8 -1 -20 5 -26 7 -7 10 -2 9 16 -2 30 -5 32 -14 10z"/>
<path d="M4551 1729 c-1 -35 -12 -43 -28 -19 -23 33 -71 3 -52 -32 12 -23 4
-37 -19 -33 -9 1 -24 -3 -32 -10 -8 -7 -35 -18 -59 -25 -47 -12 -48 -19 -4
-26 45 -8 67 -6 71 6 6 16 30 12 52 -10 11 -11 25 -20 32 -20 9 0 9 3 0 12
-16 16 -15 29 2 22 8 -3 17 -1 21 5 3 6 19 11 36 11 29 0 29 0 29 60 0 52 -2
60 -19 60 -11 0 -22 6 -24 13 -3 6 -6 0 -6 -14z"/>
<path d="M4520 1731 c0 -6 4 -13 10 -16 6 -3 7 1 4 9 -7 18 -14 21 -14 7z"/>
<path d="M726 1721 c-4 -7 -5 -15 -2 -18 9 -9 19 4 14 18 -4 11 -6 11 -12 0z"/>
<path d="M765 1720 c3 -5 10 -10 16 -10 5 0 9 5 9 10 0 6 -7 10 -16 10 -8 0
-12 -4 -9 -10z"/>
<path d="M23 1655 c-19 -13 -23 -26 -23 -66 0 -32 4 -49 13 -50 6 -1 17 -2 22
-4 6 -1 22 -3 38 -3 24 -2 27 -6 27 -34 0 -24 3 -29 9 -18 6 8 8 17 5 21 -2 4
5 9 16 12 23 6 43 -14 34 -37 -4 -11 -1 -16 10 -16 9 0 16 4 16 9 0 5 18 11
41 15 31 5 40 10 37 24 -2 10 -14 18 -31 20 -15 2 -27 7 -27 11 0 5 -13 11
-30 15 -18 3 -30 12 -30 21 0 16 -12 20 -24 8 -10 -10 -46 -11 -46 -1 0 4 5 8
10 8 6 0 10 7 10 16 0 8 5 12 10 9 14 -9 12 17 -4 37 -12 16 -14 16 -26 -8
l-14 -25 -10 26 c-10 24 -12 25 -33 10z m21 -36 c-6 -11 -24 -2 -24 11 0 5 7
7 15 4 8 -4 12 -10 9 -15z"/>
<path d="M576 1661 c-4 -7 -5 -15 -2 -18 9 -9 19 4 14 18 -4 11 -6 11 -12 0z"/>
<path d="M510 1589 c0 -5 5 -7 10 -4 6 3 10 8 10 11 0 2 -4 4 -10 4 -5 0 -10
-5 -10 -11z"/>
<path d="M470 1580 c-13 -8 -12 -10 3 -10 9 0 17 5 17 10 0 12 -1 12 -20 0z"/>
<path d="M135 1470 c-3 -5 -1 -10 4 -10 6 0 11 5 11 10 0 6 -2 10 -4 10 -3 0
-8 -4 -11 -10z"/>
<path d="M4390 1460 c0 -5 5 -10 11 -10 5 0 7 5 4 10 -3 6 -8 10 -11 10 -2 0
-4 -4 -4 -10z"/>
<path d="M4589 1458 c-7 -15 -6 -58 2 -58 5 0 9 14 9 30 0 25 -6 39 -11 28z"/>
<path d="M4358 1433 c7 -3 16 -2 19 1 4 3 -2 6 -13 5 -11 0 -14 -3 -6 -6z"/>
<path d="M238 1413 c7 -3 16 -2 19 1 4 3 -2 6 -13 5 -11 0 -14 -3 -6 -6z"/>
<path d="M18 1346 c-4 -20 -1 -26 13 -26 18 0 20 23 2 41 -7 7 -12 3 -15 -15z"/>
<path d="M170 1253 c-13 -15 -12 -16 4 -10 10 4 20 7 22 7 2 0 4 5 4 10 0 15
-13 12 -30 -7z"/>
<path d="M923 1143 c8 -182 -33 -469 -108 -752 -8 -30 -12 -58 -9 -62 7 -13
24 -11 24 2 0 6 7 17 15 25 8 9 15 25 15 37 0 12 9 54 20 92 11 39 25 93 31
120 10 48 46 135 55 135 3 0 12 -16 20 -35 22 -53 17 -137 -13 -234 -28 -91
-54 -136 -80 -136 -9 0 -21 -14 -27 -32 -15 -45 -64 -79 -57 -40 1 5 -3 6 -9
2 -5 -3 -10 -19 -10 -34 0 -21 -6 -30 -21 -34 -12 -3 -18 -10 -15 -16 3 -5 -6
-19 -21 -30 -26 -20 -64 -52 -146 -123 l-32 -28 581 0 581 0 -12 57 c-7 32
-19 83 -28 113 -9 30 -24 91 -33 135 -10 44 -25 96 -34 115 -10 19 -28 69 -40
110 -27 92 -53 144 -86 173 -14 12 -44 46 -67 77 -57 75 -172 188 -235 230
-28 19 -54 43 -57 52 -7 21 -186 208 -199 208 -5 0 -6 -55 -3 -127z m13 -300
c-2 -32 -5 -64 -5 -70 -2 -21 -21 -15 -21 7 0 25 20 120 26 120 2 0 2 -26 0
-57z"/>
<path d="M4060 1208 c0 -9 5 -20 10 -23 13 -8 13 5 0 25 -8 13 -10 13 -10 -2z"/>
<path d="M680 1180 c0 -5 5 -10 10 -10 6 0 10 5 10 10 0 6 -4 10 -10 10 -5 0
-10 -4 -10 -10z"/>
<path d="M4047 1153 c16 -41 53 -58 53 -23 0 13 -5 18 -15 14 -8 -4 -17 1 -21
10 -3 9 -10 16 -15 16 -4 0 -5 -8 -2 -17z"/>
<path d="M4132 1150 c14 -22 24 -19 15 5 -4 8 -11 15 -17 15 -6 0 -6 -7 2 -20z"/>
<path d="M820 1150 c0 -5 5 -10 10 -10 6 0 10 5 10 10 0 6 -4 10 -10 10 -5 0
-10 -4 -10 -10z"/>
<path d="M4090 1086 c0 -9 5 -16 10 -16 6 0 10 4 10 9 0 6 -4 13 -10 16 -5 3
-10 -1 -10 -9z"/>
<path d="M4058 1047 c-4 -18 1 -32 15 -44 10 -10 23 -27 27 -38 6 -14 8 -10 6
17 -2 20 -12 49 -23 64 l-20 27 -5 -26z"/>
<path d="M4238 1040 c18 -16 36 -30 42 -30 5 0 10 -7 10 -15 0 -8 7 -15 15
-15 8 0 15 2 15 4 0 11 -87 86 -99 86 -8 0 -1 -13 17 -30z"/>
<path d="M4330 1031 c0 -7 15 -18 33 -26 43 -18 48 -24 37 -45 -7 -13 -6 -20
6 -24 24 -9 29 -7 16 6 -17 17 -15 28 5 28 15 0 14 2 -3 16 -17 14 -17 15 -1
10 11 -3 16 -2 12 4 -3 6 -13 10 -21 10 -8 0 -13 4 -10 9 3 5 -4 9 -17 8 -12
0 -30 3 -39 7 -12 5 -18 4 -18 -3z"/>
<path d="M330 1020 c0 -5 5 -10 10 -10 6 0 10 5 10 10 0 6 -4 10 -10 10 -5 0
-10 -4 -10 -10z"/>
<path d="M4515 989 c-11 -17 1 -21 15 -4 8 9 8 15 2 15 -6 0 -14 -5 -17 -11z"/>
<path d="M4200 986 c0 -2 8 -10 18 -17 15 -13 16 -12 3 4 -13 16 -21 21 -21
13z"/>
<path d="M4446 931 c-3 -5 3 -11 14 -14 13 -3 20 0 20 9 0 15 -26 19 -34 5z"/>
<path d="M310 920 c-8 -5 -12 -12 -9 -15 4 -3 12 1 19 10 14 17 11 19 -10 5z"/>
<path d="M4435 900 c4 -6 11 -8 16 -5 14 9 11 15 -7 15 -8 0 -12 -5 -9 -10z"/>
<path d="M830 292 c0 -12 4 -22 9 -22 10 0 9 26 -2 36 -4 4 -7 -2 -7 -14z"/>
</g>
</svg>
